<!DOCTYPE svg PUBLIC "-//W3C//DTD SVG 1.1//EN" "http://www.w3.org/Graphics/SVG/1.1/DTD/svg11.dtd">
<!-- Uploaded to: SVG Repo, www.svgrepo.com, Transformed by: SVG Repo Mixer Tools -->
<svg fill="#ff0000" height="800px" width="800px" version="1.1" id="Layer_1" xmlns="http://www.w3.org/2000/svg" xmlns:xlink="http://www.w3.org/1999/xlink" viewBox="0 0 503.934 503.934" xml:space="preserve" stroke="#ff0000">
<g id="SVGRepo_bgCarrier" stroke-width="0"/>
<g id="SVGRepo_tracerCarrier" stroke-linecap="round" stroke-linejoin="round"/>
<g id="SVGRepo_iconCarrier"> <g> <g> <g> <path d="M482.786,277.205c-4.636,0-8.393,3.758-8.393,8.393c0,17.037-3.577,27.345-11.02,37.735 c-0.997,1.392-6.163,8.12-7.522,10.089c-2.566,3.718-4.369,7.235-5.448,10.927h-1.945c-0.499-8.428,0.25-15.257,2.082-24.086 c-0.032,0.156,0.862-4.094,1.099-5.279c0.414-2.067,0.716-3.792,0.949-5.489c1.261-9.208,0.224-17.315-4.065-27.23 c-1.841-4.255-6.781-6.211-11.036-4.371s-6.211,6.782-4.371,11.036c3.051,7.053,3.693,12.067,2.841,18.286 c-0.18,1.31-0.426,2.715-0.778,4.473c-0.218,1.088-1.092,5.243-1.075,5.162c-2.048,9.868-2.943,17.903-2.46,27.497h-3.317 c-3.171-4.873-4.345-9.431-4.467-15.37c-0.039-1.917,0.003-3.469,0.166-7.291c0.734-17.223-0.901-26.818-9.705-40.606 c-2.495-3.907-7.684-5.052-11.591-2.557c-3.907,2.495-5.052,7.684-2.557,11.591c6.584,10.311,7.682,16.759,7.082,30.858 c-0.178,4.181-0.227,5.959-0.177,8.351c0.201,9.757,2.586,17.874,8.563,26.198v47.69c0,27.76-22.603,50.361-50.361,50.361 H264.557c-27.732,0-50.361-22.684-50.361-50.47v-42.185c9.277,0,16.787-7.51,16.787-16.787v-16.787 c4.636,0,8.393-3.758,8.393-8.393s-3.758-8.393-8.393-8.393v-16.784h33.574v41.965c0,9.277,7.51,16.787,16.787,16.787h16.787 c9.277,0,16.787-7.51,16.787-16.787v-41.965h33.574c4.636,0,8.393-3.758,8.393-8.393v-41.97c4.636,0,8.393-3.758,8.393-8.393 c0-4.636-3.758-8.393-8.393-8.393v-16.787c4.636,0,8.393-3.758,8.393-8.393s-3.758-8.393-8.393-8.393v-16.787 c4.636,0,8.393-3.758,8.393-8.393s-3.758-8.393-8.393-8.393v-16.787c4.636,0,8.393-3.758,8.393-8.393 c0-4.636-3.758-8.394-8.393-8.394v-16.787c4.636,0,8.393-3.758,8.393-8.393s-3.758-8.393-8.393-8.393V50.363 c0-4.636-3.758-8.393-8.393-8.393h-25.18V25.18c0-9.277-7.51-16.787-16.787-16.787h-16.787c-9.277,0-16.787,7.51-16.787,16.787 V41.97h-8.393V16.787C264.557,7.51,257.047,0,247.77,0H130.262c-9.277,0-16.787,7.51-16.787,16.787V41.97h-8.393V25.18 c0-9.277-7.51-16.787-16.787-16.787H71.507c-9.277,0-16.787,7.51-16.787,16.787V41.97H29.54c-4.636,0-8.393,3.758-8.393,8.393 v41.965c-4.636,0-8.393,3.758-8.393,8.393s3.758,8.393,8.393,8.393v16.787c-4.636,0-8.393,3.758-8.393,8.394 c0,4.636,3.758,8.393,8.393,8.393v16.787c-4.636,0-8.393,3.758-8.393,8.393s3.758,8.393,8.393,8.393v16.787 c-4.636,0-8.393,3.758-8.393,8.393s3.758,8.393,8.393,8.393v16.787c-4.636,0-8.393,3.758-8.393,8.393 c0,4.636,3.758,8.393,8.393,8.393v41.97c0,4.636,3.758,8.393,8.393,8.393h25.18v41.965c0,9.277,7.51,16.787,16.787,16.787h16.787 c9.277,0,16.787-7.51,16.787-16.787v-41.965h41.967v16.784c-4.636,0-8.393,3.758-8.393,8.393s3.758,8.393,8.393,8.393v16.787 c0,9.277,7.51,16.787,16.787,16.787v42.185c0,55.565,45.194,100.83,100.721,100.83h100.721 c55.542,0,100.721-45.18,100.721-100.721v-50.466c0-3.291,1.029-5.965,3.667-9.788c1.06-1.535,6.103-8.105,7.352-9.848 c9.412-13.138,14.16-26.822,14.16-47.511C491.18,280.963,487.422,277.205,482.786,277.205z M289.737,25.18h16.787v16.787h-16.787 V25.18z M130.262,16.787H247.77v25.18H130.262V16.787z M71.507,25.18h16.787v16.787H71.507V25.18z M298.13,335.738h-16.787 v-41.965h16.787V335.738z M37.934,58.757h302.164v33.571H37.934V58.757z M37.934,109.115h302.164v16.787H37.934V109.115z M37.934,142.689h302.164v16.787H37.934V142.689z M37.934,176.262h302.164v16.787H37.934V176.262z M37.934,209.836h302.164 v16.787H37.934V209.836z M37.934,243.41h302.164v33.576h-33.523c-0.017,0-0.034-0.003-0.051-0.003H272.95 c-0.017,0-0.034,0.002-0.051,0.003H222.64c-0.017,0-0.034-0.003-0.051-0.003h-67.148c-0.017,0-0.034,0.002-0.051,0.003H96.739 c-0.017,0-0.034-0.003-0.051-0.003H63.114c-0.017,0-0.034,0.002-0.051,0.003h-25.13V243.41z M88.294,335.738H71.507v-41.965 h16.787V335.738z M163.835,293.773h50.361v16.784h-50.361V293.773z M214.196,327.344v16.787h-8.393h-33.574h-8.393v-16.787 H214.196z M449.212,403.213c0,46.271-37.664,83.934-83.934,83.934H264.557c-46.25,0-83.934-37.744-83.934-84.044v-42.185h16.787 v42.185c0,37.047,30.135,67.257,67.148,67.257h100.721c37.029,0,67.148-30.116,67.148-67.148v-42.076h8.504 c0.034,0,0.068,0.001,0.102,0h8.181V403.213z"/> <path d="M407.245,252.025c4.636,0,8.393-3.758,8.393-8.393c0-17.037,3.577-27.345,11.02-37.735 c0.997-1.392,6.163-8.12,7.522-10.089c2.567-3.72,4.371-7.237,5.45-10.931h1.943c0.499,8.43-0.249,15.26-2.081,24.09 c0.032-0.156-0.862,4.094-1.099,5.279c-0.414,2.068-0.717,3.792-0.949,5.489c-1.261,9.208-0.224,17.315,4.065,27.23 c1.841,4.255,6.782,6.211,11.036,4.371s6.211-6.782,4.371-11.036c-3.051-7.053-3.693-12.067-2.841-18.286 c0.18-1.31,0.426-2.715,0.778-4.473c0.218-1.088,1.092-5.243,1.075-5.162c2.048-9.869,2.944-17.905,2.459-27.501h3.314 c3.173,4.875,4.348,9.433,4.47,15.374c0.039,1.917-0.003,3.469-0.166,7.291c-0.734,17.223,0.901,26.818,9.705,40.606 c2.495,3.907,7.684,5.052,11.591,2.557c3.907-2.495,5.052-7.684,2.557-11.591c-6.584-10.311-7.682-16.759-7.082-30.858 c0.178-4.181,0.227-5.959,0.177-8.351c-0.201-9.757-2.586-17.874-8.563-26.198V8.614c0-4.636-3.758-8.393-8.393-8.393h-33.574 c-4.636,0-8.393,3.758-8.393,8.393v167.869c0,0,0,0,0,0s0,0,0,0c0,3.291-1.029,5.965-3.667,9.788 c-1.06,1.535-6.103,8.105-7.352,9.848c-9.412,13.138-14.16,26.822-14.16,47.511C398.852,248.267,402.61,252.025,407.245,252.025z M440.819,17.008h16.787V168.09h-16.787V17.008z"/> </g> </g> </g> </g>
</svg>