<!DOCTYPE svg PUBLIC "-//W3C//DTD SVG 1.1//EN" "http://www.w3.org/Graphics/SVG/1.1/DTD/svg11.dtd">
<!-- Uploaded to: SVG Repo, www.svgrepo.com, Transformed by: SVG Repo Mixer Tools -->
<svg fill="#ff0000" height="800px" width="800px" version="1.1" id="Layer_1" xmlns="http://www.w3.org/2000/svg" xmlns:xlink="http://www.w3.org/1999/xlink" viewBox="0 0 512 512" xml:space="preserve" stroke="#ff0000">
<g id="SVGRepo_bgCarrier" stroke-width="0"/>
<g id="SVGRepo_tracerCarrier" stroke-linecap="round" stroke-linejoin="round"/>
<g id="SVGRepo_iconCarrier"> <g> <g> <path d="M256,0C126.613,0,21.334,105.28,21.334,234.667v256c0,11.776,9.536,21.333,21.333,21.333h426.667 c11.797,0,21.333-9.557,21.333-21.333v-256C490.667,105.28,385.388,0,256,0z M256,42.667c83.349,0,154.261,53.483,180.736,127.851 C393.664,118.528,328.641,85.333,256,85.333s-137.664,33.195-180.736,85.184C101.74,96.149,172.651,42.667,256,42.667z M383.297,228.309c-4.181,4.16-9.621,6.251-15.083,6.251c-5.461,0-10.923-2.091-15.083-6.229 c-10.603-10.603-29.056-10.645-39.701-0.021c-8.32,8.341-21.824,8.32-30.165,0.021c-8.32-8.341-8.32-21.845,0-30.187 c26.709-26.731,73.28-26.709,100.032,0C391.617,206.464,391.617,219.989,383.297,228.309z M228.417,228.309 c-4.16,4.16-9.621,6.251-15.083,6.251c-5.461,0-10.923-2.091-15.083-6.229c-10.965-10.965-28.757-10.965-39.701,0 c-8.341,8.299-21.845,8.32-30.165-0.021c-8.341-8.32-8.341-21.845,0-30.165c27.584-27.563,72.448-27.563,100.032,0 C236.758,206.464,236.758,219.989,228.417,228.309z M64,469.333v-30.485c9.899,11.349,21.312,21.589,34.283,30.485H64z M102.165,362.667c-9.28,0.149-17.003-7.317-17.152-16.597c-0.149-9.28,16.192-34.155,16.32-34.027 c0,0,17.28,24.192,17.429,33.472C118.912,354.795,111.446,362.517,102.165,362.667z M118.763,280.192 c-0.149-9.28,16.192-34.155,16.32-34.027c0,0,17.28,24.192,17.429,33.472c0.149,9.28-7.317,17.003-16.597,17.152 C126.636,296.939,118.912,289.472,118.763,280.192z M352.278,433.557c-6.485,4.693-13.504,6.443-20.821,6.443 c-10.603,0-21.781-3.648-32.768-7.232c-13.077-4.267-27.904-9.088-42.688-9.088s-29.611,4.821-42.688,9.088 c-18.56,6.037-37.717,12.309-53.589,0.789c-15.637-11.349-15.637-32.512-15.637-39.445c0-57.984,43.925-95.445,111.915-95.445 s111.915,37.461,111.915,95.445C367.916,401.045,367.916,422.208,352.278,433.557z M377.132,296.789 c-9.28,0.149-17.003-7.317-17.152-16.597c-0.149-9.28,16.192-34.155,16.32-34.027c0,0,17.28,24.192,17.429,33.472 C393.878,288.917,386.411,296.64,377.132,296.789z M392.917,346.069c-0.149-9.28,16.192-34.155,16.32-34.027 c0,0,17.28,24.192,17.429,33.472c0.149,9.28-7.317,17.003-16.597,17.152C400.79,362.815,393.068,355.349,392.917,346.069z M448,469.333h-34.283c12.971-8.896,24.384-19.136,34.283-30.485V469.333z"/> </g> </g> <g> <g> <path d="M255.998,341.325c-20.8,0-69.248,5.163-69.248,52.779c0,0.789,0.021,1.515,0.043,2.176 c4.032-1.067,9.152-2.709,13.291-4.075c7.061-2.304,15.019-4.821,23.552-6.912c7.531-9.664,19.157-16,32.363-16 s24.832,6.336,32.363,16c8.555,2.091,16.491,4.608,23.552,6.912c4.16,1.365,9.259,3.008,13.291,4.075 c0.021-0.661,0.043-1.387,0.043-2.176C325.247,346.487,276.82,341.325,255.998,341.325z"/> </g> </g> </g>
</svg>